<svg width="1439" height="735" xmlns="http://www.w3.org/2000/svg"><g><path d="M-83,-90L-123,126L65,-19Z" fill="#b36419" stroke="#b36419"/><path d="M-83,-90L65,-19L207,-84Z" fill="#b05b18" stroke="#b05b18"/><path d="M-83,-90L207,-84L843,-132Z" fill="#c07646" stroke="#c07646"/><path d="M65,-19L-123,126L81,181Z" fill="#ca9245" stroke="#ca9245"/><path d="M65,-19L81,181L118,38Z" fill="#cc9448" stroke="#cc9448"/><path d="M65,-19L118,38L193,16Z" fill="#c58439" stroke="#c58439"/><path d="M65,-19L193,16L207,-84Z" fill="#c0792e" stroke="#c0792e"/><path d="M207,-84L193,16L378,31Z" fill="#cd9146" stroke="#cd9146"/><path d="M207,-84L378,31L390,-89Z" fill="#cb8c47" stroke="#cb8c47"/><path d="M207,-84L390,-89L843,-132Z" fill="#c78467" stroke="#c78467"/><path d="M390,-89L378,31L505,-44Z" fill="#d19960" stroke="#d19960"/><path d="M390,-89L505,-44L645,-93Z" fill="#cd916e" stroke="#cd916e"/><path d="M390,-89L645,-93L843,-132Z" fill="#bf8776" stroke="#bf8776"/><path d="M505,-44L378,31L472,63Z" fill="#dcb079" stroke="#dcb079"/><path d="M505,-44L472,63L734,84Z" fill="#e4c199" stroke="#e4c199"/><path d="M505,-44L734,84L645,-93Z" fill="#d0aa81" stroke="#d0aa81"/><path d="M645,-93L734,84L843,-132Z" fill="#b3966c" stroke="#b3966c"/><path d="M843,-132L734,84L814,116Z" fill="#b5ae81" stroke="#b5ae81"/><path d="M843,-132L814,116L1017,52Z" fill="#a0a173" stroke="#a0a173"/><path d="M843,-132L1017,52L1017,-123Z" fill="#817a53" stroke="#817a53"/><path d="M843,-132L1017,-123L1629,-106Z" fill="#4c4b37" stroke="#4c4b37"/><path d="M1017,-123L1017,52L1135,-85Z" fill="#6f7446" stroke="#6f7446"/><path d="M1017,-123L1135,-85L1629,-106Z" fill="#4f452a" stroke="#4f452a"/><path d="M1135,-85L1017,52L1138,125Z" fill="#768f5e" stroke="#768f5e"/><path d="M1135,-85L1138,125L1292,-38Z" fill="#637846" stroke="#637846"/><path d="M1135,-85L1292,-38L1460,-64Z" fill="#575225" stroke="#575225"/><path d="M1135,-85L1460,-64L1629,-106Z" fill="#533b15" stroke="#533b15"/><path d="M1292,-38L1138,125L1262,133Z" fill="#718f5c" stroke="#718f5c"/><path d="M1292,-38L1262,133L1429,69Z" fill="#6e7c47" stroke="#6e7c47"/><path d="M1292,-38L1429,69L1460,-64Z" fill="#615924" stroke="#615924"/><path d="M1460,-64L1429,69L1622,75Z" fill="#685b24" stroke="#685b24"/><path d="M1460,-64L1622,75L1629,-106Z" fill="#5d3b05" stroke="#5d3b05"/><path d="M1629,-106L1622,75L1604,722Z" fill="#808369" stroke="#808369"/><path d="M-123,126L-132,580L-73,384Z" fill="#af9b7a" stroke="#af9b7a"/><path d="M-123,126L-73,384L-54,221Z" fill="#ca9e6e" stroke="#ca9e6e"/><path d="M-123,126L-54,221L81,181Z" fill="#d0a15d" stroke="#d0a15d"/><path d="M118,38L81,181L193,16Z" fill="#d29f54" stroke="#d29f54"/><path d="M193,16L81,181L258,239Z" fill="#e4c276" stroke="#e4c276"/><path d="M193,16L258,239L378,31Z" fill="#e4be73" stroke="#e4be73"/><path d="M378,31L258,239L425,266Z" fill="#f2dda2" stroke="#f2dda2"/><path d="M378,31L425,266L486,212Z" fill="#f5e3af" stroke="#f5e3af"/><path d="M378,31L486,212L472,63Z" fill="#edd199" stroke="#edd199"/><path d="M472,63L486,212L734,84Z" fill="#f4e2b8" stroke="#f4e2b8"/><path d="M734,84L486,212L728,250Z" fill="#ebeccb" stroke="#ebeccb"/><path d="M734,84L728,250L814,116Z" fill="#d5e2b6" stroke="#d5e2b6"/><path d="M814,116L728,250L795,268Z" fill="#d1e6ca" stroke="#d1e6ca"/><path d="M814,116L795,268L1017,240Z" fill="#bddec0" stroke="#bddec0"/><path d="M814,116L1017,240L1017,52Z" fill="#abcb9b" stroke="#abcb9b"/><path d="M1017,52L1017,240L1138,125Z" fill="#93bf8d" stroke="#93bf8d"/><path d="M1138,125L1017,240L1168,266Z" fill="#8ac1a0" stroke="#8ac1a0"/><path d="M1138,125L1168,266L1262,133Z" fill="#80b488" stroke="#80b488"/><path d="M1262,133L1168,266L1286,215Z" fill="#80b08c" stroke="#80b08c"/><path d="M1262,133L1286,215L1429,69Z" fill="#7e9d68" stroke="#7e9d68"/><path d="M1429,69L1286,215L1479,271Z" fill="#809a6e" stroke="#809a6e"/><path d="M1429,69L1479,271L1622,75Z" fill="#7e864e" stroke="#7e864e"/><path d="M1622,75L1479,271L1594,283Z" fill="#808761" stroke="#808761"/><path d="M1622,75L1594,283L1604,722Z" fill="#69877a" stroke="#69877a"/><path d="M-54,221L-73,384L30,415Z" fill="#c0a983" stroke="#c0a983"/><path d="M-54,221L30,415L81,181Z" fill="#d5b188" stroke="#d5b188"/><path d="M81,181L30,415L200,384Z" fill="#d2c19c" stroke="#d2c19c"/><path d="M81,181L200,384L258,239Z" fill="#e5cda2" stroke="#e5cda2"/><path d="M258,239L200,384L416,315Z" fill="#e9e1bd" stroke="#e9e1bd"/><path d="M258,239L416,315L425,266Z" fill="#f2e6c7" stroke="#f2e6c7"/><path d="M425,266L416,315L470,335Z" fill="#f1eddc" stroke="#f1eddc"/><path d="M425,266L470,335L486,212Z" fill="#f6eeda" stroke="#f6eeda"/><path d="M486,212L470,335L634,402Z" fill="#f1f5ef" stroke="#f1f5ef"/><path d="M486,212L634,402L728,250Z" fill="#f2f7f5" stroke="#f2f7f5"/><path d="M728,250L634,402L795,268Z" fill="#d9f0ec" stroke="#d9f0ec"/><path d="M795,268L634,402L862,351Z" fill="#c4ece5" stroke="#c4ece5"/><path d="M795,268L862,351L1017,240Z" fill="#bae2d9" stroke="#bae2d9"/><path d="M1017,240L862,351L979,367Z" fill="#a3dad2" stroke="#a3dad2"/><path d="M1017,240L979,367L1140,365Z" fill="#8dcec4" stroke="#8dcec4"/><path d="M1017,240L1140,365L1168,266Z" fill="#8ac7bd" stroke="#8ac7bd"/><path d="M1168,266L1140,365L1302,414Z" fill="#6dbaad" stroke="#6dbaad"/><path d="M1168,266L1302,414L1286,215Z" fill="#7eb6aa" stroke="#7eb6aa"/><path d="M1286,215L1302,414L1479,271Z" fill="#7ea99b" stroke="#7ea99b"/><path d="M1479,271L1302,414L1445,424Z" fill="#65a08e" stroke="#65a08e"/><path d="M1479,271L1445,424L1568,397Z" fill="#679482" stroke="#679482"/><path d="M1479,271L1568,397L1594,283Z" fill="#78907f" stroke="#78907f"/><path d="M1594,283L1568,397L1604,722Z" fill="#427f6b" stroke="#427f6b"/><path d="M-73,384L-132,580L30,415Z" fill="#929c70" stroke="#929c70"/><path d="M30,415L-132,580L64,526Z" fill="#839669" stroke="#839669"/><path d="M30,415L64,526L200,384Z" fill="#a8bc91" stroke="#a8bc91"/><path d="M200,384L64,526L176,562Z" fill="#9ab589" stroke="#9ab589"/><path d="M200,384L176,562L350,493Z" fill="#a8c99d" stroke="#a8c99d"/><path d="M200,384L350,493L416,315Z" fill="#cde0bc" stroke="#cde0bc"/><path d="M416,315L350,493L486,473Z" fill="#c6e8ce" stroke="#c6e8ce"/><path d="M416,315L486,473L470,335Z" fill="#daeddb" stroke="#daeddb"/><path d="M470,335L486,473L634,402Z" fill="#d2f3e7" stroke="#d2f3e7"/><path d="M634,402L486,473L659,572Z" fill="#b3e8df" stroke="#b3e8df"/><path d="M634,402L659,572L789,528Z" fill="#97dcd0" stroke="#97dcd0"/><path d="M634,402L789,528L862,351Z" fill="#a6e9de" stroke="#a6e9de"/><path d="M862,351L789,528L926,472Z" fill="#8adfd1" stroke="#8adfd1"/><path d="M862,351L926,472L979,367Z" fill="#8fdbd0" stroke="#8fdbd0"/><path d="M979,367L926,472L1109,502Z" fill="#6bcebe" stroke="#6bcebe"/><path d="M979,367L1109,502L1140,365Z" fill="#68c8b9" stroke="#68c8b9"/><path d="M1140,365L1109,502L1302,414Z" fill="#51baa8" stroke="#51baa8"/><path d="M1302,414L1109,502L1334,493Z" fill="#41a995" stroke="#41a995"/><path d="M1302,414L1334,493L1445,424Z" fill="#4ba28e" stroke="#4ba28e"/><path d="M1445,424L1334,493L1418,500Z" fill="#40957f" stroke="#40957f"/><path d="M1445,424L1418,500L1517,466Z" fill="#43907a" stroke="#43907a"/><path d="M1445,424L1517,466L1568,397Z" fill="#50917b" stroke="#50917b"/><path d="M1568,397L1517,466L1604,722Z" fill="#297057" stroke="#297057"/><path d="M-132,580L-93,847L-87,664Z" fill="#494e21" stroke="#494e21"/><path d="M-132,580L-87,664L64,526Z" fill="#5f7747" stroke="#5f7747"/><path d="M64,526L-87,664L72,663Z" fill="#5a7a4a" stroke="#5a7a4a"/><path d="M64,526L72,663L176,562Z" fill="#719364" stroke="#719364"/><path d="M176,562L72,663L270,651Z" fill="#679262" stroke="#679262"/><path d="M176,562L270,651L350,493Z" fill="#87b284" stroke="#87b284"/><path d="M350,493L270,651L325,686Z" fill="#79ac81" stroke="#79ac81"/><path d="M350,493L325,686L486,473Z" fill="#94c4a3" stroke="#94c4a3"/><path d="M486,473L325,686L549,726Z" fill="#78b398" stroke="#78b398"/><path d="M486,473L549,726L659,572Z" fill="#8bc8bb" stroke="#8bc8bb"/><path d="M659,572L549,726L716,719Z" fill="#6dac9d" stroke="#6dac9d"/><path d="M659,572L716,719L767,643Z" fill="#5faf9f" stroke="#5faf9f"/><path d="M659,572L767,643L789,528Z" fill="#6ec0b2" stroke="#6ec0b2"/><path d="M789,528L767,643L926,472Z" fill="#69c4b5" stroke="#69c4b5"/><path d="M926,472L767,643L922,765Z" fill="#40a997" stroke="#40a997"/><path d="M926,472L922,765L1028,709Z" fill="#2b9884" stroke="#2b9884"/><path d="M926,472L1028,709L1115,628Z" fill="#299d89" stroke="#299d89"/><path d="M926,472L1115,628L1109,502Z" fill="#3eae9c" stroke="#3eae9c"/><path d="M1109,502L1115,628L1334,493Z" fill="#249b86" stroke="#249b86"/><path d="M1334,493L1115,628L1234,723Z" fill="#078069" stroke="#078069"/><path d="M1334,493L1234,723L1421,644Z" fill="#057259" stroke="#057259"/><path d="M1334,493L1421,644L1418,500Z" fill="#238068" stroke="#238068"/><path d="M1418,500L1421,644L1517,466Z" fill="#267b63" stroke="#267b63"/><path d="M1517,466L1421,644L1604,722Z" fill="#095e42" stroke="#095e42"/><path d="M-87,664L-93,847L29,801Z" fill="#4e410d" stroke="#4e410d"/><path d="M-87,664L29,801L72,663Z" fill="#545d2b" stroke="#545d2b"/><path d="M72,663L29,801L199,772Z" fill="#5d622f" stroke="#5d622f"/><path d="M72,663L199,772L270,651Z" fill="#657e4d" stroke="#657e4d"/><path d="M270,651L199,772L325,686Z" fill="#6d8a59" stroke="#6d8a59"/><path d="M325,686L199,772L328,773Z" fill="#6f824f" stroke="#6f824f"/><path d="M325,686L328,773L549,726Z" fill="#74916c" stroke="#74916c"/><path d="M549,726L328,773L504,877Z" fill="#768364" stroke="#768364"/><path d="M549,726L504,877L638,863Z" fill="#7a8478" stroke="#7a8478"/><path d="M549,726L638,863L716,719Z" fill="#6f907e" stroke="#6f907e"/><path d="M716,719L638,863L878,804Z" fill="#59816c" stroke="#59816c"/><path d="M716,719L878,804L767,643Z" fill="#509480" stroke="#509480"/><path d="M767,643L878,804L922,765Z" fill="#428a74" stroke="#428a74"/><path d="M1028,709L922,765L1159,801Z" fill="#1a6e55" stroke="#1a6e55"/><path d="M1028,709L1159,801L1115,628Z" fill="#0c735b" stroke="#0c735b"/><path d="M1115,628L1159,801L1234,723Z" fill="#006950" stroke="#006950"/><path d="M1234,723L1159,801L1290,872Z" fill="#004a2e" stroke="#004a2e"/><path d="M1234,723L1290,872L1429,855Z" fill="#003922" stroke="#003922"/><path d="M1234,723L1429,855L1421,644Z" fill="#004a2e" stroke="#004a2e"/><path d="M1421,644L1429,855L1604,722Z" fill="#003b1d" stroke="#003b1d"/><path d="M1604,722L1429,855L1572,879Z" fill="#001d03" stroke="#001d03"/><path d="M-93,847L504,877L29,801Z" fill="#624d26" stroke="#624d26"/><path d="M29,801L504,877L199,772Z" fill="#6b6537" stroke="#6b6537"/><path d="M199,772L504,877L328,773Z" fill="#72744a" stroke="#72744a"/><path d="M504,877L1572,879L1290,872Z" fill="#07463d" stroke="#07463d"/><path d="M504,877L1290,872L638,863Z" fill="#4b6a66" stroke="#4b6a66"/><path d="M638,863L1290,872L878,804Z" fill="#306057" stroke="#306057"/><path d="M878,804L1290,872L1159,801Z" fill="#0a513f" stroke="#0a513f"/><path d="M878,804L1159,801L922,765Z" fill="#256a52" stroke="#256a52"/><path d="M1290,872L1572,879L1429,855Z" fill="#002012" stroke="#002012"/></g></svg>